<?xml version="1.0" encoding="UTF-8"?>
<svg width="172px" height="167px" viewBox="0 0 172 167" version="1.1" xmlns="http://www.w3.org/2000/svg" xmlns:xlink="http://www.w3.org/1999/xlink">
    <!-- Generator: Sketch 63.1 (92452) - https://sketch.com -->
    <title>Group 3</title>
    <desc>Created with Sketch.</desc>
    <g id="[UI]-PROVEEDOR-/-REGISTRAR-SUCURSALES" stroke="none" stroke-width="1" fill="none" fill-rule="evenodd">
        <g id="10B_[Sucursal]Confirmación" transform="translate(-597.000000, -194.000000)">
            <g id="Group-4" transform="translate(402.000000, 155.000000)">
                <g id="Group-3" transform="translate(192.000000, 36.000000)">
                    <path d="M31,23 L126,23 C130.418278,23 134,26.581722 134,31 L134,126 C134,130.418278 130.418278,134 126,134 L31,134 C26.581722,134 23,130.418278 23,126 L23,31 C23,26.581722 26.581722,23 31,23 Z" id="Rectangle" fill="#E6EBED" transform="translate(78.500000, 78.500000) rotate(-45.000000) translate(-78.500000, -78.500000) "></path>
                    <g id="Group-2" transform="translate(61.000000, 32.000000)">
                        <path d="M88.9565217,83.3666667 C73.5720736,83.3666667 60.8632556,94.8881067 58.895038,109.81977 C57.0174185,109.954877 55.1761135,110.74743 53.7361319,112.195669 L50.9037481,115.044296 C49.0200493,116.938797 48.2588605,119.537243 48.6175696,122 L4.04347826,122 C1.81032789,122 0,120.17929 0,117.933333 L0,36.6 L32.3478261,36.6 C34.5809765,36.6 36.3913043,34.7792913 36.3913043,32.5333333 L36.3913043,0 L88.9565217,0 C91.1896721,0 93,1.82070868 93,4.06666667 L93,83.635415 C91.6772266,83.4581628 90.3274994,83.3666667 88.9565217,83.3666667 Z" id="Path" fill="#0D4D64"></path>
                        <path d="M73.3036326,113.5 L73.3036326,119.975295 L77.127681,116.138376 C77.9238647,115.339513 79.2154616,115.348392 80.0175524,116.153183 L82.8682597,119.013484 C83.6826632,119.830629 83.672074,121.121368 82.8721076,121.924027 L72.1116645,132.720687 C70.5223716,134.315327 67.9456201,134.315327 66.3563272,132.720687 L55.5958842,121.924027 C54.8038209,121.1293 54.7976412,119.818274 55.599732,119.013484 L58.4504393,116.153183 C59.2648428,115.336038 60.5463694,115.341763 61.3403107,116.138376 L65.1643591,119.975295 L65.1643591,113.5 C65.1643591,99.9690236 76.0965897,89 89.5821796,89 C103.067769,89 114,99.9690236 114,113.5 C114,127.030976 103.067769,138 89.5821796,138 L87.5599628,138 C86.4413886,138 85.5125428,137.07735 85.5125428,135.939205 L85.5125428,131.894128 C85.5125428,130.738512 86.4178417,129.833333 87.5345866,129.833333 L89.5821796,129.833333 C98.5725728,129.833333 105.860727,122.520651 105.860727,113.5 C105.860727,104.479349 98.5725728,97.1666667 89.5821796,97.1666667 C80.5917863,97.1666667 73.3036326,104.479349 73.3036326,113.5 Z" id="Path" fill="#EFA51E"></path>
                        <polygon id="Path" fill="#E24D56" points="28 2 28 28 2 28"></polygon>
                    </g>
                </g>
            </g>
        </g>
    </g>
</svg>