<?xml version="1.0" encoding="UTF-8"?>
<svg width="156px" height="161px" viewBox="0 0 156 161" version="1.1" xmlns="http://www.w3.org/2000/svg" xmlns:xlink="http://www.w3.org/1999/xlink">
    <!-- Generator: Sketch 63.1 (92452) - https://sketch.com -->
    <title>Group 2</title>
    <desc>Created with Sketch.</desc>
    <g id="[UI]-PROVEEDOR-/-REGISTRAR-SUCURSALES" stroke="none" stroke-width="1" fill="none" fill-rule="evenodd">
        <g id="10B_[Sucursal]Confirmación-Copy" transform="translate(-597.000000, -194.000000)">
            <g id="Group-2" transform="translate(594.000000, 191.000000)">
                <path d="M31,23 L126,23 C130.418278,23 134,26.581722 134,31 L134,126 C134,130.418278 130.418278,134 126,134 L31,134 C26.581722,134 23,130.418278 23,126 L23,31 C23,26.581722 26.581722,23 31,23 Z" id="Rectangle" fill="#E6EBED" transform="translate(78.500000, 78.500000) rotate(-45.000000) translate(-78.500000, -78.500000) "></path>
                <g id="Group-18" transform="translate(61.000000, 32.000000)">
                    <path d="M88.9565217,-1.84741111e-13 C91.1896721,-1.84741111e-13 93,1.82070868 93,4.06666667 L93.0009958,83.5040452 C87.7529563,79.427358 81.1599481,77 74,77 C56.8791728,77 43,90.8791728 43,108 C43,113.038073 44.2018298,117.795443 46.3344332,122.001055 L4.04347826,122 C1.81032789,122 3.33955086e-13,120.17929 3.33955086e-13,117.933333 L3.33955086e-13,36.6 L32.3478261,36.6 C34.5809765,36.6 36.3913043,34.7792913 36.3913043,32.5333333 L36.3913043,-1.84741111e-13 L88.9565217,-1.84741111e-13 Z" id="Combined-Shape" fill="#0D4D64"></path>
                    <polygon id="Path" fill="#E24D56" points="28 2 28 28 2 28"></polygon>
                    <path d="M74,84 C87.254834,84 98,94.745166 98,108 C98,121.254834 87.254834,132 74,132 C60.745166,132 50,121.254834 50,108 C50,94.745166 60.745166,84 74,84 Z M80.4253061,100 C80.0236326,100 79.6385074,100.160017 79.355102,100.444662 L79.355102,100.444662 L74,105.798132 L68.644898,100.444662 C68.3614926,100.160017 67.9763674,100 67.5746939,100 C67.1730204,100 66.7878952,100.160017 66.5044898,100.444662 L66.5044898,100.444662 L66.4036589,100.555541 C66.1823405,100.824607 66.0598276,101.163402 66.0598276,101.514866 C66.0598276,101.91654 66.2198444,102.301665 66.5044898,102.58507 L66.5044898,102.58507 L71.8579592,107.940172 L66.5044898,113.295274 C66.2198444,113.57868 66.0598276,113.963805 66.0598276,114.365478 C66.0598276,114.767152 66.2198444,115.152277 66.5044898,115.435683 L66.5044898,115.435683 L66.6153686,115.536514 C66.884435,115.757832 67.2232296,115.880345 67.5746939,115.880345 C67.9763674,115.880345 68.3614926,115.720328 68.644898,115.435683 L68.644898,115.435683 L74,110.082213 L79.355102,115.435683 C79.6385074,115.720328 80.0236326,115.880345 80.4253061,115.880345 C80.8269796,115.880345 81.2121048,115.720328 81.4955102,115.435683 L81.4955102,115.435683 L81.5963411,115.324804 C81.8176595,115.055737 81.9401724,114.716943 81.9401724,114.365478 C81.9401724,113.963805 81.7801556,113.57868 81.4955102,113.295274 L81.4955102,113.295274 L76.1420408,107.940172 L81.4955102,102.58507 C81.7801556,102.301665 81.9401724,101.91654 81.9401724,101.514866 C81.9401724,101.113193 81.7801556,100.728068 81.4955102,100.444662 L81.4955102,100.444662 L81.3846314,100.343831 C81.115565,100.122513 80.7767704,100 80.4253061,100 Z" id="Combined-Shape" fill="#E24D56"></path>
                </g>
            </g>
        </g>
    </g>
</svg>